# xmcd CD database file
#
# Track frame offsets:
#	150
#	12966
#	24388
#	38610
#	51981
#	65345
#	79415
#	90972
#	105442
#	120129
#	131894
#	146552
#	160244
#	176091
#	188490
#	202871
#	216252
#	232125
#	245571
#	261017
#	272379
#	285767
#	298018
#	310878
#	322725
#
# Disc length: 4503 seconds
#
# Revision: 1
# Processed by: cddbd v1.5.1PL0 Copyright (c) Steve Scherf et al.
# Submitted via: CDex 1.51
#
DISCID=51119519
DTITLE=Marcel Bianchi - The Exciting Electric Guitar Of Marcel Bianchi - Vol 1
DYEAR=1900
DGENRE=Jazz
TTITLE0=Flying Home
TTITLE1=Sweet Georgia Brown
TTITLE2=Sleepy Town Train
TTITLE3=Cement Mixer Put-Ti Put-Ti
TTITLE4=Le Vol Du Bourdon
TTITLE5=Beguin The Biguine
TTITLE6=I Surrender Dear
TTITLE7=Blue Skies
TTITLE8=My Yiddish Mome
TTITLE9=Out Of Nowhere
TTITLE10=Smoke Gets In Your Eyes
TTITLE11=Chandelles Et Boogie
TTITLE12=Surprise Party Boogie
TTITLE13=Foogy Boogie
TTITLE14=Train's Boogie
TTITLE15=Beep Boogie
TTITLE16=Cocotte Boogie
TTITLE17=Roses De Picardie
TTITLE18=Maria Dolores
TTITLE19=Avant De Mourir
TTITLE20=Brazil
TTITLE21=Perfidia
TTITLE22=Granada
TTITLE23=Sous Les Ponts De Paris
TTITLE24=Bing Bang Blues
EXTD=
EXTT0=
EXTT1=
EXTT2=
EXTT3=
EXTT4=
EXTT5=
EXTT6=
EXTT7=
EXTT8=
EXTT9=
EXTT10=
EXTT11=
EXTT12=
EXTT13=
EXTT14=
EXTT15=
EXTT16=
EXTT17=
EXTT18=
EXTT19=
EXTT20=
EXTT21=
EXTT22=
EXTT23=
EXTT24=
PLAYORDER=
